<svg version="1.1" xmlns="http://www.w3.org/2000/svg" width="32" height="32" viewBox="0 0 32 32">
<title>woo</title>
<path id="svg-ico" fill="#ee5586" d="M25.8,21.8C25.8,21.8,25.8,21.8,25.8,21.8c-0.4-0.1-0.7-0.3-0.8-0.8c-0.1-0.4-0.2-0.7-0.2-1.1
	c0-0.3,0-0.6,0.1-0.9c0.1-0.6,0.3-1.1,0.7-1.5c0.4-0.5,0.8-0.8,1.1-0.8c0.1,0,0.1,0,0.2,0c0.3,0.1,0.6,0.3,0.8,0.8
	c0.1,0.4,0.2,0.7,0.2,1.1c0,0.3,0,0.6-0.1,0.9c-0.1,0.7-0.4,1.4-0.9,1.9C26.5,21.6,26.2,21.8,25.8,21.8z M26.6,17.2
	c-0.2,0-0.4,0.2-0.6,0.5c-0.3,0.4-0.5,0.8-0.6,1.3c0,0.2-0.1,0.5-0.1,0.8c0,0.3,0.1,0.6,0.2,0.9c0.1,0.3,0.2,0.4,0.3,0.4
	c0.1,0,0.3-0.1,0.4-0.2c0.4-0.4,0.7-1,0.8-1.5c0.1-0.3,0.1-0.5,0.1-0.8c0-0.3-0.1-0.6-0.2-0.9C26.8,17.3,26.7,17.3,26.6,17.2
	L26.6,17.2z"/>
<path id="svg-ico" fill="#ee5586" d="M18,21.8C18,21.8,17.9,21.8,18,21.8c-0.4-0.1-0.7-0.4-0.8-0.8c-0.1-0.4-0.2-0.7-0.2-1.1c0-0.3,0-0.6,0.1-0.9
	c0.1-0.5,0.3-1.1,0.7-1.5c0.4-0.6,0.9-0.9,1.3-0.8c0.3,0.1,0.6,0.3,0.8,0.8c0.1,0.4,0.2,0.8,0.2,1.1c0,0.3,0,0.6-0.1,0.9
	c-0.1,0.7-0.4,1.3-0.9,1.8C18.7,21.6,18.3,21.8,18,21.8z M18.8,17.3c-0.2,0-0.4,0.2-0.6,0.5c-0.3,0.4-0.5,0.8-0.6,1.3
	c0,0.2-0.1,0.5-0.1,0.8c0,0.3,0.1,0.6,0.2,0.9c0.1,0.3,0.2,0.4,0.3,0.4c0.1,0,0.3-0.1,0.4-0.2c0.4-0.4,0.7-0.9,0.8-1.5
	c0.1-0.3,0.1-0.5,0.1-0.8c0-0.3-0.1-0.6-0.2-0.9C18.9,17.4,18.8,17.3,18.8,17.3L18.8,17.3z"/>
<path id="svg-ico" fill="#ee5586" d="M12.5,26L12.5,26c-0.6,0-1.1-0.3-1.4-0.7c-0.9-1-1.8-2.3-2.4-4c-0.5,0.9-0.8,1.6-1.1,2.2
	c-0.9,1.7-1.6,2.5-2.4,2.5c-0.4,0-1.1-0.2-1.5-1.3C3,23,2.3,19.7,1.5,15c-0.1-0.5,0-1,0.3-1.3C2.2,13.3,2.7,13,3.2,13
	c0.8-0.1,1.6,0.4,1.8,1.3c0,0.1,0,0.1,0,0.2c0.3,1.7,0.5,3.4,0.8,4.8l1.9-3.6c0.5-0.9,1.1-1.1,1.5-1.1c0.5,0,1.4,0.1,1.7,1.6
	c0.1,0.5,0.2,0.9,0.3,1.4c0.3-1.8,0.8-3.2,1.3-4.2c0.3-0.5,0.8-0.9,1.4-0.9c0.4,0,0.9,0.1,1.2,0.4c0.4,0.3,0.6,0.7,0.6,1.2
	c0,0.3,0,0.7-0.2,1c-0.4,0.8-0.8,2.3-1.2,4.3C14.1,20.9,14,22.4,14,24c0,0.4,0,0.8-0.2,1.2c-0.2,0.5-0.7,0.8-1.2,0.8L12.5,26z
	 M8.8,19.5l0.3,0.8c0.6,2,1.5,3.5,2.5,4.6c0.2,0.3,0.6,0.4,0.9,0.5l0,0.3l0-0.3c0.3,0,0.5-0.2,0.7-0.4c0.1-0.3,0.2-0.5,0.2-0.8
	c0-1.6,0.1-3.2,0.4-4.8c0.3-2.1,0.7-3.6,1.2-4.5c0.1-0.2,0.1-0.4,0.1-0.6c0-0.3-0.2-0.5-0.4-0.7c-0.2-0.2-0.5-0.3-0.8-0.3
	c-0.4,0-0.7,0.2-0.8,0.5c-0.7,1.2-1.2,3.1-1.5,5.5l-0.2,1.5l-0.5-1.5c-0.3-1-0.5-2-0.7-3c-0.2-1-0.7-1.1-1-1c-0.4,0-0.7,0.3-0.9,0.7
	l-2.8,5.3l-0.2-0.9c-0.4-1.7-0.7-3.6-1.1-5.8c0-0.1,0-0.1,0-0.2c-0.1-0.5-0.5-0.8-1-0.7c-0.3,0-0.6,0.1-0.8,0.4
	c-0.2,0.2-0.3,0.5-0.2,0.8c0.7,4.7,1.4,7.9,2,9.5c0.2,0.6,0.5,0.9,0.8,0.8c0.5,0,1.1-0.8,1.9-2.2c0.3-0.7,0.8-1.6,1.4-2.9L8.8,19.5z
	"/>
<path fill="#5e686b" d="M20.9,30.6c-0.1,0-0.2,0-0.3-0.1l-5.3-3.1H4.1c-1.8,0-3.9-1.5-3.9-3.6v-9.6c0-0.9,0.4-1.7,1-2.3
	c0.8-0.8,1.8-1.2,2.8-1.2h23.8c1.8,0,3.9,1.5,3.9,3.6v9.6c0,1-0.5,1.9-1.3,2.5c-0.7,0.6-1.7,1-2.6,1h-7.4l0.9,2.3
	c0.1,0.2,0.1,0.3,0,0.5c-0.1,0.2-0.2,0.3-0.4,0.4C21,30.6,21,30.6,20.9,30.6z M4.1,11.3c-0.9,0-1.7,0.4-2.4,1
	c-0.5,0.5-0.8,1.2-0.8,1.9v9.6c0,1.6,1.7,2.9,3.2,2.9h11.3l5.5,3.2l-1.3-3.2H28c0.8,0,1.6-0.3,2.2-0.8c0.6-0.5,1-1.2,1-2v-9.6
	c0-1.6-1.7-2.9-3.2-2.9H4.1z"/>
<path id="svg-ico" fill="#ee5586" d="M18.1,24c-0.2,0-0.4,0-0.7-0.1c-0.8-0.2-1.6-0.7-2-1.5c-0.4-0.8-0.6-1.6-0.6-2.5c0-1.2,0.3-2.5,1-3.5
	c0.8-1.3,1.7-1.9,3-1.9c0.2,0,0.4,0,0.7,0.1c0.9,0.2,1.6,0.7,2,1.5c0.4,0.8,0.6,1.6,0.6,2.5c0,1.2-0.3,2.5-1,3.5
	C20.3,23.4,19.3,24,18.1,24z M18.7,15.2c-1,0-1.7,0.5-2.4,1.6c-0.6,1-0.9,2.1-0.9,3.2c0,0.8,0.2,1.5,0.5,2.2c0.3,0.6,0.9,1,1.5,1.1
	c0.2,0,0.4,0.1,0.5,0.1c1,0,1.7-0.5,2.4-1.5c0.6-1,0.9-2.1,0.9-3.2c0-0.8-0.1-1.5-0.5-2.1c-0.3-0.6-0.9-1-1.6-1.1
	C19.1,15.2,18.9,15.2,18.7,15.2L18.7,15.2z"/>
<path id="svg-ico" fill="#ee5586" d="M25.9,24c-0.2,0-0.5,0-0.7-0.1c-0.9-0.2-1.6-0.7-2-1.5c-0.4-0.8-0.6-1.6-0.6-2.5c0-1.2,0.3-2.5,1-3.5
	c0.8-1.3,1.7-1.9,2.9-1.9c0.2,0,0.5,0,0.7,0.1c0.8,0.2,1.6,0.7,2,1.5c0.4,0.8,0.6,1.6,0.6,2.5c0,1.2-0.3,2.5-1,3.5
	C28.1,23.4,27.2,24,25.9,24z M26.6,15.2c-1,0-1.7,0.5-2.4,1.6c-0.6,1-0.9,2.1-0.9,3.2c0,0.8,0.2,1.5,0.5,2.2c0.3,0.6,0.9,1,1.5,1.1
	c0.2,0,0.4,0.1,0.6,0.1c1,0,1.7-0.5,2.4-1.5c0.6-1,0.9-2.1,0.9-3.2c0-0.8-0.1-1.5-0.5-2.1c-0.3-0.6-0.9-1-1.6-1.1
	C26.9,15.2,26.8,15.2,26.6,15.2L26.6,15.2z"/>
</svg>
