<?xml version="1.0" encoding="utf-8"?>
<!-- Generator: Adobe Illustrator 25.3.0, SVG Export Plug-In . SVG Version: 6.00 Build 0)  -->
<svg version="1.1" id="Layer_1" xmlns="http://www.w3.org/2000/svg" xmlns:xlink="http://www.w3.org/1999/xlink" x="0px" y="0px"
	 viewBox="0 0 650 650" style="enable-background:new 0 0 650 650;" xml:space="preserve">
<style type="text/css">
	.colocation0{fill:none;stroke:#808080;stroke-width:2;stroke-linecap:round;stroke-linejoin:round;stroke-miterlimit:10;}
	.colocation1{fill:none;stroke:#808080;stroke-linecap:round;stroke-linejoin:round;stroke-miterlimit:10;}
	.colocation2{fill:none;stroke:#EE5586;stroke-width:3;stroke-linecap:round;stroke-linejoin:round;stroke-miterlimit:10;}
	.colocation3{fill:none;stroke:#EE5586;stroke-width:2;stroke-linecap:round;stroke-linejoin:round;stroke-miterlimit:10;}
</style>
<g>
	<path class="colocation0" d="M173.3,543.4h347.9c4.8,0,8.6,4.3,8.6,9.5v46.9l0,0c0,5.3-3.8,9.5-8.6,9.5h-402c-4.8,0-8.6-4.3-8.6-9.5v-46.9
		c0-5.3,3.8-9.5,8.6-9.5H173.3"/>
	<line class="colocation1" x1="148.3" y1="543.4" x2="148.3" y2="609"/>
	<line class="colocation1" x1="487" y1="543.4" x2="487" y2="609.4"/>
	<path class="colocation1" d="M220.4,597.6h-49.3c-3.7,0-6.6-3-6.6-6.6v-0.7c0-3.7,3-6.6,6.6-6.6h49.3c3.7,0,6.6,3,6.6,6.6v0.7
		C227,594.6,224.1,597.6,220.4,597.6z"/>
	<path class="colocation1" d="M171.7,570.8h-0.2c-1.2,0-2-0.8-2-2v-0.2c0-1.2,0.8-2,2-2h0.2c1.2,0,2,0.8,2,2v0.2
		C173.7,570,172.9,570.8,171.7,570.8z"/>
	<path class="colocation1" d="M180.2,570.8H180c-1.2,0-2-0.8-2-2v-0.2c0-1.2,0.8-2,2-2h0.2c1.2,0,2,0.8,2,2v0.2
		C182.4,570,181.4,570.8,180.2,570.8z"/>
	<path class="colocation1" d="M192.3,570.8h-0.2c-1.2,0-2-0.8-2-2v-0.2c0-1.2,0.8-2,2-2h0.2c1.2,0,2,0.8,2,2v0.2
		C194.3,570,193.5,570.8,192.3,570.8z"/>
	<path class="colocation1" d="M171.7,561.5h-0.2c-1.2,0-2-0.8-2-2v-0.2c0-1.2,0.8-2,2-2h0.2c1.2,0,2,0.8,2,2v0.2
		C173.7,560.7,172.9,561.5,171.7,561.5z"/>
	<path class="colocation1" d="M180.2,561.5H180c-1.2,0-2-0.8-2-2v-0.2c0-1.2,0.8-2,2-2h0.2c1.2,0,2,0.8,2,2v0.2
		C182.4,560.7,181.4,561.5,180.2,561.5z"/>
	<path class="colocation1" d="M224.9,561.5h-0.2c-1.2,0-2-0.8-2-2v-0.2c0-1.2,0.8-2,2-2h0.2c1.2,0,2,0.8,2,2v0.2
		C226.9,560.7,225.9,561.5,224.9,561.5z"/>
	<path class="colocation1" d="M201,570.8h-0.2c-1.2,0-2-0.8-2-2v-0.2c0-1.2,0.8-2,2-2h0.2c1.2,0,2,0.8,2,2v0.2
		C203,570,202.1,570.8,201,570.8z"/>
	<path class="colocation1" d="M209.4,570.8h-0.2c-1.2,0-2-0.8-2-2v-0.2c0-1.2,0.8-2,2-2h0.2c1.2,0,2,0.8,2,2v0.2
		C211.4,570,210.4,570.8,209.4,570.8z"/>
	<path class="colocation1" d="M209.4,570.8h-0.2c-1.2,0-2-0.8-2-2v-0.2c0-1.2,0.8-2,2-2h0.2c1.2,0,2,0.8,2,2v0.2
		C211.6,570,210.6,570.8,209.4,570.8z"/>
	<path class="colocation1" d="M209.4,561.5h-16.6c-1.2,0-2-0.8-2-2v-0.2c0-1.2,0.8-2,2-2h16.6c1.2,0,2,0.8,2,2v0.2
		C211.6,560.7,210.6,561.5,209.4,561.5z"/>
	<line class="colocation1" x1="186.3" y1="583.6" x2="186.3" y2="597.6"/>
	<path class="colocation1" d="M208.4,593.6h-0.3c-1.5,0-2.8-1.3-2.8-2.8v-0.3c0-1.5,1.3-2.8,2.8-2.8h0.3c1.5,0,2.8,1.3,2.8,2.8v0.3
		C211.1,592.3,209.9,593.6,208.4,593.6z"/>
	<path class="colocation1" d="M308.7,597.6h-49.3c-3.7,0-6.6-3-6.6-6.6v-0.7c0-3.7,3-6.6,6.6-6.6h49.3c3.7,0,6.6,3,6.6,6.6v0.7
		C315.3,594.6,312.3,597.6,308.7,597.6z"/>
	<path class="colocation1" d="M260,570.8h-0.3c-1.2,0-2-0.8-2-2v-0.2c0-1.2,0.8-2,2-2h0.2c1.2,0,2,0.8,2,2v0.2C262,570,261,570.8,260,570.8z
		"/>
	<path class="colocation1" d="M268.5,570.8L268.5,570.8c-1.3,0-2.2-0.8-2.2-2v-0.2c0-1.2,0.8-2,2-2h0.2c1.2,0,2,0.8,2,2v0.2
		C270.5,570,269.6,570.8,268.5,570.8z"/>
	<path class="colocation1" d="M280.4,570.8L280.4,570.8c-1.3,0-2.2-0.8-2.2-2v-0.2c0-1.2,0.8-2,2-2h0.2c1.2,0,2,0.8,2,2v0.2
		C282.6,570,281.8,570.8,280.4,570.8z"/>
	<path class="colocation1" d="M260,561.5h-0.3c-1.2,0-2-0.8-2-2v-0.2c0-1.2,0.8-2,2-2h0.2c1.2,0,2,0.8,2,2v0.2
		C262,560.7,261,561.5,260,561.5z"/>
	<path class="colocation1" d="M268.5,561.5L268.5,561.5c-1.3,0-2.2-0.8-2.2-2v-0.2c0-1.2,0.8-2,2-2h0.2c1.2,0,2,0.8,2,2v0.2
		C270.5,560.7,269.6,561.5,268.5,561.5z"/>
	<path class="colocation1" d="M313.2,561.5h-0.3c-1.2,0-2-0.8-2-2v-0.2c0-1.2,0.8-2,2-2h0.2c1.2,0,2,0.8,2,2v0.2
		C315,560.7,314.2,561.5,313.2,561.5z"/>
	<path class="colocation1" d="M289.2,570.8L289.2,570.8c-1.3,0-2.2-0.8-2.2-2v-0.2c0-1.2,0.8-2,2-2h0.2c1.2,0,2,0.8,2,2v0.2
		C291.2,570,290.2,570.8,289.2,570.8z"/>
	<path class="colocation1" d="M297.7,570.8L297.7,570.8c-1.3,0-2.2-0.8-2.2-2v-0.2c0-1.2,0.8-2,2-2h0.2c1.2,0,2,0.8,2,2v0.2
		C299.7,570,298.7,570.8,297.7,570.8z"/>
	<path class="colocation1" d="M297.7,570.8L297.7,570.8c-1.3,0-2.2-0.8-2.2-2v-0.2c0-1.2,0.8-2,2-2h0.2c1.2,0,2,0.8,2,2v0.2
		C299.9,570,298.9,570.8,297.7,570.8z"/>
	<path class="colocation1" d="M297.7,561.5h-16.6c-1.2,0-2-0.8-2-2v-0.2c0-1.2,0.8-2,2-2h16.6c1.2,0,2,0.8,2,2v0.2
		C299.9,560.7,298.9,561.5,297.7,561.5z"/>
	<line class="colocation1" x1="274.6" y1="583.6" x2="274.6" y2="597.6"/>
	<path class="colocation1" d="M296.7,593.6h-0.3c-1.5,0-2.8-1.3-2.8-2.8v-0.3c0-1.5,1.3-2.8,2.8-2.8h0.3c1.5,0,2.8,1.3,2.8,2.8v0.3
		C299.4,592.3,298.2,593.6,296.7,593.6z"/>
	<path class="colocation1" d="M396.8,597.6h-49.3c-3.7,0-6.6-3-6.6-6.6v-0.7c0-3.7,3-6.6,6.6-6.6h49.3c3.7,0,6.6,3,6.6,6.6v0.7
		C403.4,594.6,400.6,597.6,396.8,597.6z"/>
	<path class="colocation1" d="M348.3,570.8L348.3,570.8c-1.3,0-2.2-0.8-2.2-2v-0.2c0-1.2,0.8-2,2-2h0.2c1.2,0,2,0.8,2,2v0.2
		C350.3,570,349.3,570.8,348.3,570.8z"/>
	<path class="colocation1" d="M356.7,570.8L356.7,570.8c-1.3,0-2.2-0.8-2.2-2v-0.2c0-1.2,0.8-2,2-2h0.2c1.2,0,2,0.8,2,2v0.2
		C358.9,570,357.9,570.8,356.7,570.8z"/>
	<path class="colocation1" d="M368.9,570.8L368.9,570.8c-1.3,0-2.2-0.8-2.2-2v-0.2c0-1.2,0.8-2,2-2h0.2c1.2,0,2,0.8,2,2v0.2
		C370.9,570,370,570.8,368.9,570.8z"/>
	<path class="colocation1" d="M348.3,561.5L348.3,561.5c-1.3,0-2.2-0.8-2.2-2v-0.2c0-1.2,0.8-2,2-2h0.2c1.2,0,2,0.8,2,2v0.2
		C350.3,560.7,349.3,561.5,348.3,561.5z"/>
	<path class="colocation1" d="M356.7,561.5L356.7,561.5c-1.3,0-2.2-0.8-2.2-2v-0.2c0-1.2,0.8-2,2-2h0.2c1.2,0,2,0.8,2,2v0.2
		C358.9,560.7,357.9,561.5,356.7,561.5z"/>
	<path class="colocation1" d="M401.4,561.5L401.4,561.5c-1.3,0-2.2-0.8-2.2-2v-0.2c0-1.2,0.8-2,2-2h0.2c1.2,0,2,0.8,2,2v0.2
		C403.4,560.7,402.4,561.5,401.4,561.5z"/>
	<path class="colocation1" d="M377.5,570.8L377.5,570.8c-1.3,0-2.2-0.8-2.2-2v-0.2c0-1.2,0.8-2,2-2h0.2c1.2,0,2,0.8,2,2v0.2
		C379.5,570,378.5,570.8,377.5,570.8z"/>
	<path class="colocation1" d="M386,570.8L386,570.8c-1.3,0-2.2-0.8-2.2-2v-0.2c0-1.2,0.8-2,2-2h0.2c1.2,0,2,0.8,2,2v0.2
		C388,570,387,570.8,386,570.8z"/>
	<path class="colocation1" d="M386,570.8L386,570.8c-1.3,0-2.2-0.8-2.2-2v-0.2c0-1.2,0.8-2,2-2h0.2c1.2,0,2,0.8,2,2v0.2
		C388.1,570,387.1,570.8,386,570.8z"/>
	<path class="colocation1" d="M386,561.5h-16.6c-1.2,0-2-0.8-2-2v-0.2c0-1.2,0.8-2,2-2H386c1.2,0,2,0.8,2,2v0.2
		C388.1,560.7,387.1,561.5,386,561.5z"/>
	<line class="colocation1" x1="362.7" y1="583.6" x2="362.7" y2="597.6"/>
	<path class="colocation1" d="M385,593.6h-0.3c-1.5,0-2.8-1.3-2.8-2.8v-0.3c0-1.5,1.3-2.8,2.8-2.8h0.3c1.5,0,2.8,1.3,2.8,2.8v0.3
		C387.6,592.3,386.5,593.6,385,593.6z"/>
	<line class="colocation1" x1="240" y1="543.4" x2="240" y2="609.4"/>
	<line class="colocation1" x1="120.6" y1="561" x2="120.6" y2="589.9"/>
	<line class="colocation1" x1="519.8" y1="561" x2="519.8" y2="589.9"/>
	<line class="colocation1" x1="328.8" y1="543.4" x2="328.8" y2="609.4"/>
	<line class="colocation1" x1="418.4" y1="543.4" x2="418.4" y2="609.4"/>
	<path class="colocation0" d="M173.3,458.1h347.9c4.8,0,8.6,4.3,8.6,9.5v46.9l0,0c0,5.3-3.8,9.5-8.6,9.5h-402c-4.8,0-8.6-4.3-8.6-9.5v-46.9
		c0-5.3,3.8-9.5,8.6-9.5H173.3"/>
	<line class="colocation1" x1="148.3" y1="458.1" x2="148.3" y2="523.8"/>
	<line class="colocation1" x1="487" y1="458.1" x2="487" y2="524.1"/>
	<path class="colocation1" d="M220.4,512.3h-49.3c-3.7,0-6.6-3-6.6-6.6V505c0-3.7,3-6.6,6.6-6.6h49.3c3.7,0,6.6,3,6.6,6.6v0.7
		C227,509.3,224.1,512.3,220.4,512.3z"/>
	<path class="colocation1" d="M171.7,485.6h-0.2c-1.2,0-2-0.8-2-2v-0.2c0-1.2,0.8-2,2-2h0.2c1.2,0,2,0.8,2,2v0.2
		C173.7,484.7,172.9,485.6,171.7,485.6z"/>
	<path class="colocation1" d="M180.2,485.6H180c-1.2,0-2-0.8-2-2v-0.2c0-1.2,0.8-2,2-2h0.2c1.2,0,2,0.8,2,2v0.2
		C182.4,484.7,181.4,485.6,180.2,485.6z"/>
	<path class="colocation1" d="M192.3,485.6h-0.2c-1.2,0-2-0.8-2-2v-0.2c0-1.2,0.8-2,2-2h0.2c1.2,0,2,0.8,2,2v0.2
		C194.3,484.7,193.5,485.6,192.3,485.6z"/>
	<path class="colocation1" d="M171.7,476.3h-0.2c-1.2,0-2-0.8-2-2v-0.2c0-1.2,0.8-2,2-2h0.2c1.2,0,2,0.8,2,2v0.2
		C173.7,475.4,172.9,476.3,171.7,476.3z"/>
	<path class="colocation1" d="M180.2,476.3H180c-1.2,0-2-0.8-2-2v-0.2c0-1.2,0.8-2,2-2h0.2c1.2,0,2,0.8,2,2v0.2
		C182.4,475.4,181.4,476.3,180.2,476.3z"/>
	<path class="colocation1" d="M224.9,476.3h-0.2c-1.2,0-2-0.8-2-2v-0.2c0-1.2,0.8-2,2-2h0.2c1.2,0,2,0.8,2,2v0.2
		C226.9,475.4,225.9,476.3,224.9,476.3z"/>
	<path class="colocation1" d="M201,485.6h-0.2c-1.2,0-2-0.8-2-2v-0.2c0-1.2,0.8-2,2-2h0.2c1.2,0,2,0.8,2,2v0.2
		C203,484.7,202.1,485.6,201,485.6z"/>
	<path class="colocation1" d="M209.4,485.6h-0.2c-1.2,0-2-0.8-2-2v-0.2c0-1.2,0.8-2,2-2h0.2c1.2,0,2,0.8,2,2v0.2
		C211.4,484.7,210.4,485.6,209.4,485.6z"/>
	<path class="colocation1" d="M209.4,485.6h-0.2c-1.2,0-2-0.8-2-2v-0.2c0-1.2,0.8-2,2-2h0.2c1.2,0,2,0.8,2,2v0.2
		C211.6,484.7,210.6,485.6,209.4,485.6z"/>
	<path class="colocation1" d="M209.4,476.3h-16.6c-1.2,0-2-0.8-2-2v-0.2c0-1.2,0.8-2,2-2h16.6c1.2,0,2,0.8,2,2v0.2
		C211.6,475.4,210.6,476.3,209.4,476.3z"/>
	<line class="colocation1" x1="186.3" y1="498.4" x2="186.3" y2="512.3"/>
	<path class="colocation1" d="M208.4,508.3h-0.3c-1.5,0-2.8-1.3-2.8-2.8v-0.3c0-1.5,1.3-2.8,2.8-2.8h0.3c1.5,0,2.8,1.3,2.8,2.8v0.3
		C211.1,507,209.9,508.3,208.4,508.3z"/>
	<path class="colocation1" d="M308.7,512.3h-49.3c-3.7,0-6.6-3-6.6-6.6V505c0-3.7,3-6.6,6.6-6.6h49.3c3.7,0,6.6,3,6.6,6.6v0.7
		C315.3,509.3,312.3,512.3,308.7,512.3z"/>
	<path class="colocation1" d="M260,485.6h-0.3c-1.2,0-2-0.8-2-2v-0.2c0-1.2,0.8-2,2-2h0.2c1.2,0,2,0.8,2,2v0.2
		C262,484.7,261,485.6,260,485.6z"/>
	<path class="colocation1" d="M268.5,485.6L268.5,485.6c-1.3,0-2.2-0.8-2.2-2v-0.2c0-1.2,0.8-2,2-2h0.2c1.2,0,2,0.8,2,2v0.2
		C270.5,484.7,269.6,485.6,268.5,485.6z"/>
	<path class="colocation1" d="M280.4,485.6L280.4,485.6c-1.3,0-2.2-0.8-2.2-2v-0.2c0-1.2,0.8-2,2-2h0.2c1.2,0,2,0.8,2,2v0.2
		C282.6,484.7,281.8,485.6,280.4,485.6z"/>
	<path class="colocation1" d="M260,476.3h-0.3c-1.2,0-2-0.8-2-2v-0.2c0-1.2,0.8-2,2-2h0.2c1.2,0,2,0.8,2,2v0.2
		C262,475.4,261,476.3,260,476.3z"/>
	<path class="colocation1" d="M268.5,476.3L268.5,476.3c-1.3,0-2.2-0.8-2.2-2v-0.2c0-1.2,0.8-2,2-2h0.2c1.2,0,2,0.8,2,2v0.2
		C270.5,475.4,269.6,476.3,268.5,476.3z"/>
	<path class="colocation1" d="M313.2,476.3h-0.3c-1.2,0-2-0.8-2-2v-0.2c0-1.2,0.8-2,2-2h0.2c1.2,0,2,0.8,2,2v0.2
		C315,475.4,314.2,476.3,313.2,476.3z"/>
	<path class="colocation1" d="M289.2,485.6L289.2,485.6c-1.3,0-2.2-0.8-2.2-2v-0.2c0-1.2,0.8-2,2-2h0.2c1.2,0,2,0.8,2,2v0.2
		C291.2,484.7,290.2,485.6,289.2,485.6z"/>
	<path class="colocation1" d="M297.7,485.6L297.7,485.6c-1.3,0-2.2-0.8-2.2-2v-0.2c0-1.2,0.8-2,2-2h0.2c1.2,0,2,0.8,2,2v0.2
		C299.7,484.7,298.7,485.6,297.7,485.6z"/>
	<path class="colocation1" d="M297.7,485.6L297.7,485.6c-1.3,0-2.2-0.8-2.2-2v-0.2c0-1.2,0.8-2,2-2h0.2c1.2,0,2,0.8,2,2v0.2
		C299.9,484.7,298.9,485.6,297.7,485.6z"/>
	<path class="colocation1" d="M297.7,476.3h-16.6c-1.2,0-2-0.8-2-2v-0.2c0-1.2,0.8-2,2-2h16.6c1.2,0,2,0.8,2,2v0.2
		C299.9,475.4,298.9,476.3,297.7,476.3z"/>
	<line class="colocation1" x1="274.6" y1="498.4" x2="274.6" y2="512.3"/>
	<path class="colocation1" d="M296.7,508.3h-0.3c-1.5,0-2.8-1.3-2.8-2.8v-0.3c0-1.5,1.3-2.8,2.8-2.8h0.3c1.5,0,2.8,1.3,2.8,2.8v0.3
		C299.4,507,298.2,508.3,296.7,508.3z"/>
	<path class="colocation1" d="M396.8,512.3h-49.3c-3.7,0-6.6-3-6.6-6.6V505c0-3.7,3-6.6,6.6-6.6h49.3c3.7,0,6.6,3,6.6,6.6v0.7
		C403.4,509.3,400.6,512.3,396.8,512.3z"/>
	<path class="colocation1" d="M348.3,485.6L348.3,485.6c-1.3,0-2.2-0.8-2.2-2v-0.2c0-1.2,0.8-2,2-2h0.2c1.2,0,2,0.8,2,2v0.2
		C350.3,484.7,349.3,485.6,348.3,485.6z"/>
	<path class="colocation1" d="M356.7,485.6L356.7,485.6c-1.3,0-2.2-0.8-2.2-2v-0.2c0-1.2,0.8-2,2-2h0.2c1.2,0,2,0.8,2,2v0.2
		C358.9,484.7,357.9,485.6,356.7,485.6z"/>
	<path class="colocation1" d="M368.9,485.6L368.9,485.6c-1.3,0-2.2-0.8-2.2-2v-0.2c0-1.2,0.8-2,2-2h0.2c1.2,0,2,0.8,2,2v0.2
		C370.9,484.7,370,485.6,368.9,485.6z"/>
	<path class="colocation1" d="M348.3,476.3L348.3,476.3c-1.3,0-2.2-0.8-2.2-2v-0.2c0-1.2,0.8-2,2-2h0.2c1.2,0,2,0.8,2,2v0.2
		C350.3,475.4,349.3,476.3,348.3,476.3z"/>
	<path class="colocation1" d="M356.7,476.3L356.7,476.3c-1.3,0-2.2-0.8-2.2-2v-0.2c0-1.2,0.8-2,2-2h0.2c1.2,0,2,0.8,2,2v0.2
		C358.9,475.4,357.9,476.3,356.7,476.3z"/>
	<path class="colocation1" d="M401.4,476.3L401.4,476.3c-1.3,0-2.2-0.8-2.2-2v-0.2c0-1.2,0.8-2,2-2h0.2c1.2,0,2,0.8,2,2v0.2
		C403.4,475.4,402.4,476.3,401.4,476.3z"/>
	<path class="colocation1" d="M377.5,485.6L377.5,485.6c-1.3,0-2.2-0.8-2.2-2v-0.2c0-1.2,0.8-2,2-2h0.2c1.2,0,2,0.8,2,2v0.2
		C379.5,484.7,378.5,485.6,377.5,485.6z"/>
	<path class="colocation1" d="M386,485.6L386,485.6c-1.3,0-2.2-0.8-2.2-2v-0.2c0-1.2,0.8-2,2-2h0.2c1.2,0,2,0.8,2,2v0.2
		C388,484.7,387,485.6,386,485.6z"/>
	<path class="colocation1" d="M386,485.6L386,485.6c-1.3,0-2.2-0.8-2.2-2v-0.2c0-1.2,0.8-2,2-2h0.2c1.2,0,2,0.8,2,2v0.2
		C388.1,484.7,387.1,485.6,386,485.6z"/>
	<path class="colocation1" d="M386,476.3h-16.6c-1.2,0-2-0.8-2-2v-0.2c0-1.2,0.8-2,2-2H386c1.2,0,2,0.8,2,2v0.2
		C388.1,475.4,387.1,476.3,386,476.3z"/>
	<line class="colocation1" x1="362.7" y1="498.4" x2="362.7" y2="512.3"/>
	<path class="colocation1" d="M385,508.3h-0.3c-1.5,0-2.8-1.3-2.8-2.8v-0.3c0-1.5,1.3-2.8,2.8-2.8h0.3c1.5,0,2.8,1.3,2.8,2.8v0.3
		C387.6,507,386.5,508.3,385,508.3z"/>
	<line class="colocation1" x1="240" y1="458.1" x2="240" y2="524.1"/>
	<line class="colocation1" x1="120.6" y1="475.8" x2="120.6" y2="504.7"/>
	<line class="colocation1" x1="519.8" y1="475.8" x2="519.8" y2="504.7"/>
	<line class="colocation1" x1="328.8" y1="458.1" x2="328.8" y2="524.1"/>
	<line class="colocation1" x1="418.4" y1="458.1" x2="418.4" y2="524.1"/>
	<path class="colocation0" d="M173.3,372.9h347.9c4.8,0,8.6,4.3,8.6,9.5v46.9l0,0c0,5.3-3.8,9.5-8.6,9.5h-402c-4.8,0-8.6-4.3-8.6-9.5v-46.9
		c0-5.3,3.8-9.5,8.6-9.5H173.3"/>
	<line class="colocation1" x1="148.3" y1="372.9" x2="148.3" y2="438.5"/>
	<line class="colocation1" x1="487" y1="372.9" x2="487" y2="438.8"/>
	<path class="colocation1" d="M220.4,427h-49.3c-3.7,0-6.6-3-6.6-6.6v-0.7c0-3.7,3-6.6,6.6-6.6h49.3c3.7,0,6.6,3,6.6,6.6v0.7
		C227,424,224.1,427,220.4,427z"/>
	<path class="colocation1" d="M171.7,400.3h-0.2c-1.2,0-2-0.8-2-2v-0.2c0-1.2,0.8-2,2-2h0.2c1.2,0,2,0.8,2,2v0.2
		C173.7,399.5,172.9,400.3,171.7,400.3z"/>
	<path class="colocation1" d="M180.2,400.3H180c-1.2,0-2-0.8-2-2v-0.2c0-1.2,0.8-2,2-2h0.2c1.2,0,2,0.8,2,2v0.2
		C182.4,399.5,181.4,400.3,180.2,400.3z"/>
	<path class="colocation1" d="M192.3,400.3h-0.2c-1.2,0-2-0.8-2-2v-0.2c0-1.2,0.8-2,2-2h0.2c1.2,0,2,0.8,2,2v0.2
		C194.3,399.5,193.5,400.3,192.3,400.3z"/>
	<path class="colocation1" d="M171.7,391h-0.2c-1.2,0-2-0.8-2-2v-0.2c0-1.2,0.8-2,2-2h0.2c1.2,0,2,0.8,2,2v0.2
		C173.7,390.2,172.9,391,171.7,391z"/>
	<path class="colocation1" d="M180.2,391H180c-1.2,0-2-0.8-2-2v-0.2c0-1.2,0.8-2,2-2h0.2c1.2,0,2,0.8,2,2v0.2
		C182.4,390.2,181.4,391,180.2,391z"/>
	<path class="colocation1" d="M224.9,391h-0.2c-1.2,0-2-0.8-2-2v-0.2c0-1.2,0.8-2,2-2h0.2c1.2,0,2,0.8,2,2v0.2
		C226.9,390.2,225.9,391,224.9,391z"/>
	<path class="colocation1" d="M201,400.3h-0.2c-1.2,0-2-0.8-2-2v-0.2c0-1.2,0.8-2,2-2h0.2c1.2,0,2,0.8,2,2v0.2
		C203,399.5,202.1,400.3,201,400.3z"/>
	<path class="colocation1" d="M209.4,400.3h-0.2c-1.2,0-2-0.8-2-2v-0.2c0-1.2,0.8-2,2-2h0.2c1.2,0,2,0.8,2,2v0.2
		C211.4,399.5,210.4,400.3,209.4,400.3z"/>
	<path class="colocation1" d="M209.4,400.3h-0.2c-1.2,0-2-0.8-2-2v-0.2c0-1.2,0.8-2,2-2h0.2c1.2,0,2,0.8,2,2v0.2
		C211.6,399.5,210.6,400.3,209.4,400.3z"/>
	<path class="colocation1" d="M209.4,391h-16.6c-1.2,0-2-0.8-2-2v-0.2c0-1.2,0.8-2,2-2h16.6c1.2,0,2,0.8,2,2v0.2
		C211.6,390.2,210.6,391,209.4,391z"/>
	<line class="colocation1" x1="186.3" y1="413.1" x2="186.3" y2="427"/>
	<path class="colocation1" d="M208.4,423h-0.3c-1.5,0-2.8-1.3-2.8-2.8v-0.3c0-1.5,1.3-2.8,2.8-2.8h0.3c1.5,0,2.8,1.3,2.8,2.8v0.3
		C211.1,421.7,209.9,423,208.4,423z"/>
	<path class="colocation1" d="M308.7,427h-49.3c-3.7,0-6.6-3-6.6-6.6v-0.7c0-3.7,3-6.6,6.6-6.6h49.3c3.7,0,6.6,3,6.6,6.6v0.7
		C315.3,424,312.3,427,308.7,427z"/>
	<path class="colocation1" d="M260,400.3h-0.3c-1.2,0-2-0.8-2-2v-0.2c0-1.2,0.8-2,2-2h0.2c1.2,0,2,0.8,2,2v0.2
		C262,399.5,261,400.3,260,400.3z"/>
	<path class="colocation1" d="M268.5,400.3L268.5,400.3c-1.3,0-2.2-0.8-2.2-2v-0.2c0-1.2,0.8-2,2-2h0.2c1.2,0,2,0.8,2,2v0.2
		C270.5,399.5,269.6,400.3,268.5,400.3z"/>
	<path class="colocation1" d="M280.4,400.3L280.4,400.3c-1.3,0-2.2-0.8-2.2-2v-0.2c0-1.2,0.8-2,2-2h0.2c1.2,0,2,0.8,2,2v0.2
		C282.6,399.5,281.8,400.3,280.4,400.3z"/>
	<path class="colocation1" d="M260,391h-0.3c-1.2,0-2-0.8-2-2v-0.2c0-1.2,0.8-2,2-2h0.2c1.2,0,2,0.8,2,2v0.2C262,390.2,261,391,260,391z"/>
	<path class="colocation1" d="M268.5,391L268.5,391c-1.3,0-2.2-0.8-2.2-2v-0.2c0-1.2,0.8-2,2-2h0.2c1.2,0,2,0.8,2,2v0.2
		C270.5,390.2,269.6,391,268.5,391z"/>
	<path class="colocation1" d="M313.2,391h-0.3c-1.2,0-2-0.8-2-2v-0.2c0-1.2,0.8-2,2-2h0.2c1.2,0,2,0.8,2,2v0.2
		C315,390.2,314.2,391,313.2,391z"/>
	<path class="colocation1" d="M289.2,400.3L289.2,400.3c-1.3,0-2.2-0.8-2.2-2v-0.2c0-1.2,0.8-2,2-2h0.2c1.2,0,2,0.8,2,2v0.2
		C291.2,399.5,290.2,400.3,289.2,400.3z"/>
	<path class="colocation1" d="M297.7,400.3L297.7,400.3c-1.3,0-2.2-0.8-2.2-2v-0.2c0-1.2,0.8-2,2-2h0.2c1.2,0,2,0.8,2,2v0.2
		C299.7,399.5,298.7,400.3,297.7,400.3z"/>
	<path class="colocation1" d="M297.7,400.3L297.7,400.3c-1.3,0-2.2-0.8-2.2-2v-0.2c0-1.2,0.8-2,2-2h0.2c1.2,0,2,0.8,2,2v0.2
		C299.9,399.5,298.9,400.3,297.7,400.3z"/>
	<path class="colocation1" d="M297.7,391h-16.6c-1.2,0-2-0.8-2-2v-0.2c0-1.2,0.8-2,2-2h16.6c1.2,0,2,0.8,2,2v0.2
		C299.9,390.2,298.9,391,297.7,391z"/>
	<line class="colocation1" x1="274.6" y1="413.1" x2="274.6" y2="427"/>
	<path class="colocation1" d="M296.7,423h-0.3c-1.5,0-2.8-1.3-2.8-2.8v-0.3c0-1.5,1.3-2.8,2.8-2.8h0.3c1.5,0,2.8,1.3,2.8,2.8v0.3
		C299.4,421.7,298.2,423,296.7,423z"/>
	<path class="colocation1" d="M396.8,427h-49.3c-3.7,0-6.6-3-6.6-6.6v-0.7c0-3.7,3-6.6,6.6-6.6h49.3c3.7,0,6.6,3,6.6,6.6v0.7
		C403.4,424,400.6,427,396.8,427z"/>
	<path class="colocation1" d="M348.3,400.3L348.3,400.3c-1.3,0-2.2-0.8-2.2-2v-0.2c0-1.2,0.8-2,2-2h0.2c1.2,0,2,0.8,2,2v0.2
		C350.3,399.5,349.3,400.3,348.3,400.3z"/>
	<path class="colocation1" d="M356.7,400.3L356.7,400.3c-1.3,0-2.2-0.8-2.2-2v-0.2c0-1.2,0.8-2,2-2h0.2c1.2,0,2,0.8,2,2v0.2
		C358.9,399.5,357.9,400.3,356.7,400.3z"/>
	<path class="colocation1" d="M368.9,400.3L368.9,400.3c-1.3,0-2.2-0.8-2.2-2v-0.2c0-1.2,0.8-2,2-2h0.2c1.2,0,2,0.8,2,2v0.2
		C370.9,399.5,370,400.3,368.9,400.3z"/>
	<path class="colocation1" d="M348.3,391L348.3,391c-1.3,0-2.2-0.8-2.2-2v-0.2c0-1.2,0.8-2,2-2h0.2c1.2,0,2,0.8,2,2v0.2
		C350.3,390.2,349.3,391,348.3,391z"/>
	<path class="colocation1" d="M356.7,391L356.7,391c-1.3,0-2.2-0.8-2.2-2v-0.2c0-1.2,0.8-2,2-2h0.2c1.2,0,2,0.8,2,2v0.2
		C358.9,390.2,357.9,391,356.7,391z"/>
	<path class="colocation1" d="M401.4,391L401.4,391c-1.3,0-2.2-0.8-2.2-2v-0.2c0-1.2,0.8-2,2-2h0.2c1.2,0,2,0.8,2,2v0.2
		C403.4,390.2,402.4,391,401.4,391z"/>
	<path class="colocation1" d="M377.5,400.3L377.5,400.3c-1.3,0-2.2-0.8-2.2-2v-0.2c0-1.2,0.8-2,2-2h0.2c1.2,0,2,0.8,2,2v0.2
		C379.5,399.5,378.5,400.3,377.5,400.3z"/>
	<path class="colocation1" d="M386,400.3L386,400.3c-1.3,0-2.2-0.8-2.2-2v-0.2c0-1.2,0.8-2,2-2h0.2c1.2,0,2,0.8,2,2v0.2
		C388,399.5,387,400.3,386,400.3z"/>
	<path class="colocation1" d="M386,400.3L386,400.3c-1.3,0-2.2-0.8-2.2-2v-0.2c0-1.2,0.8-2,2-2h0.2c1.2,0,2,0.8,2,2v0.2
		C388.1,399.5,387.1,400.3,386,400.3z"/>
	<path class="colocation1" d="M386,391h-16.6c-1.2,0-2-0.8-2-2v-0.2c0-1.2,0.8-2,2-2H386c1.2,0,2,0.8,2,2v0.2C388.1,390.2,387.1,391,386,391
		z"/>
	<line class="colocation1" x1="362.7" y1="413.1" x2="362.7" y2="427"/>
	<path class="colocation1" d="M385,423h-0.3c-1.5,0-2.8-1.3-2.8-2.8v-0.3c0-1.5,1.3-2.8,2.8-2.8h0.3c1.5,0,2.8,1.3,2.8,2.8v0.3
		C387.6,421.7,386.5,423,385,423z"/>
	<line class="colocation1" x1="240" y1="372.9" x2="240" y2="438.8"/>
	<line class="colocation1" x1="120.6" y1="390.5" x2="120.6" y2="419.4"/>
	<line class="colocation1" x1="519.8" y1="390.5" x2="519.8" y2="419.4"/>
	<line class="colocation1" x1="328.8" y1="372.9" x2="328.8" y2="438.8"/>
	<line class="colocation1" x1="418.4" y1="372.9" x2="418.4" y2="438.8"/>
	<path class="colocation0" d="M173.3,287.6h347.9c4.8,0,8.6,4.3,8.6,9.5V344l0,0c0,5.3-3.8,9.5-8.6,9.5h-402c-4.8,0-8.6-4.3-8.6-9.5v-46.9
		c0-5.3,3.8-9.5,8.6-9.5H173.3"/>
	<line class="colocation1" x1="148.3" y1="287.6" x2="148.3" y2="353.2"/>
	<line class="colocation1" x1="487" y1="287.6" x2="487" y2="353.6"/>
	<path class="colocation1" d="M220.4,341.8h-49.3c-3.7,0-6.6-3-6.6-6.6v-0.7c0-3.7,3-6.6,6.6-6.6h49.3c3.7,0,6.6,3,6.6,6.6v0.7
		C227,338.8,224.1,341.8,220.4,341.8z"/>
	<path class="colocation1" d="M171.7,315h-0.2c-1.2,0-2-0.8-2-2v-0.2c0-1.2,0.8-2,2-2h0.2c1.2,0,2,0.8,2,2v0.2
		C173.7,314.2,172.9,315,171.7,315z"/>
	<path class="colocation1" d="M180.2,315H180c-1.2,0-2-0.8-2-2v-0.2c0-1.2,0.8-2,2-2h0.2c1.2,0,2,0.8,2,2v0.2
		C182.4,314.2,181.4,315,180.2,315z"/>
	<path class="colocation1" d="M192.3,315h-0.2c-1.2,0-2-0.8-2-2v-0.2c0-1.2,0.8-2,2-2h0.2c1.2,0,2,0.8,2,2v0.2
		C194.3,314.2,193.5,315,192.3,315z"/>
	<path class="colocation1" d="M171.7,305.7h-0.2c-1.2,0-2-0.8-2-2v-0.2c0-1.2,0.8-2,2-2h0.2c1.2,0,2,0.8,2,2v0.2
		C173.7,304.9,172.9,305.7,171.7,305.7z"/>
	<path class="colocation1" d="M180.2,305.7H180c-1.2,0-2-0.8-2-2v-0.2c0-1.2,0.8-2,2-2h0.2c1.2,0,2,0.8,2,2v0.2
		C182.4,304.9,181.4,305.7,180.2,305.7z"/>
	<path class="colocation1" d="M224.9,305.7h-0.2c-1.2,0-2-0.8-2-2v-0.2c0-1.2,0.8-2,2-2h0.2c1.2,0,2,0.8,2,2v0.2
		C226.9,304.9,225.9,305.7,224.9,305.7z"/>
	<path class="colocation1" d="M201,315h-0.2c-1.2,0-2-0.8-2-2v-0.2c0-1.2,0.8-2,2-2h0.2c1.2,0,2,0.8,2,2v0.2C203,314.2,202.1,315,201,315z"
		/>
	<path class="colocation1" d="M209.4,315h-0.2c-1.2,0-2-0.8-2-2v-0.2c0-1.2,0.8-2,2-2h0.2c1.2,0,2,0.8,2,2v0.2
		C211.4,314.2,210.4,315,209.4,315z"/>
	<path class="colocation1" d="M209.4,315h-0.2c-1.2,0-2-0.8-2-2v-0.2c0-1.2,0.8-2,2-2h0.2c1.2,0,2,0.8,2,2v0.2
		C211.6,314.2,210.6,315,209.4,315z"/>
	<path class="colocation1" d="M209.4,305.7h-16.6c-1.2,0-2-0.8-2-2v-0.2c0-1.2,0.8-2,2-2h16.6c1.2,0,2,0.8,2,2v0.2
		C211.6,304.9,210.6,305.7,209.4,305.7z"/>
	<line class="colocation1" x1="186.3" y1="327.8" x2="186.3" y2="341.8"/>
	<path class="colocation1" d="M208.4,337.8h-0.3c-1.5,0-2.8-1.3-2.8-2.8v-0.3c0-1.5,1.3-2.8,2.8-2.8h0.3c1.5,0,2.8,1.3,2.8,2.8v0.3
		C211.1,336.4,209.9,337.8,208.4,337.8z"/>
	<path class="colocation1" d="M308.7,341.8h-49.3c-3.7,0-6.6-3-6.6-6.6v-0.7c0-3.7,3-6.6,6.6-6.6h49.3c3.7,0,6.6,3,6.6,6.6v0.7
		C315.3,338.8,312.3,341.8,308.7,341.8z"/>
	<path class="colocation1" d="M260,315h-0.3c-1.2,0-2-0.8-2-2v-0.2c0-1.2,0.8-2,2-2h0.2c1.2,0,2,0.8,2,2v0.2C262,314.2,261,315,260,315z"/>
	<path class="colocation1" d="M268.5,315L268.5,315c-1.3,0-2.2-0.8-2.2-2v-0.2c0-1.2,0.8-2,2-2h0.2c1.2,0,2,0.8,2,2v0.2
		C270.5,314.2,269.6,315,268.5,315z"/>
	<path class="colocation1" d="M280.4,315L280.4,315c-1.3,0-2.2-0.8-2.2-2v-0.2c0-1.2,0.8-2,2-2h0.2c1.2,0,2,0.8,2,2v0.2
		C282.6,314.2,281.8,315,280.4,315z"/>
	<path class="colocation1" d="M260,305.7h-0.3c-1.2,0-2-0.8-2-2v-0.2c0-1.2,0.8-2,2-2h0.2c1.2,0,2,0.8,2,2v0.2
		C262,304.9,261,305.7,260,305.7z"/>
	<path class="colocation1" d="M268.5,305.7L268.5,305.7c-1.3,0-2.2-0.8-2.2-2v-0.2c0-1.2,0.8-2,2-2h0.2c1.2,0,2,0.8,2,2v0.2
		C270.5,304.9,269.6,305.7,268.5,305.7z"/>
	<path class="colocation1" d="M313.2,305.7h-0.3c-1.2,0-2-0.8-2-2v-0.2c0-1.2,0.8-2,2-2h0.2c1.2,0,2,0.8,2,2v0.2
		C315,304.9,314.2,305.7,313.2,305.7z"/>
	<path class="colocation1" d="M289.2,315L289.2,315c-1.3,0-2.2-0.8-2.2-2v-0.2c0-1.2,0.8-2,2-2h0.2c1.2,0,2,0.8,2,2v0.2
		C291.2,314.2,290.2,315,289.2,315z"/>
	<path class="colocation1" d="M297.7,315L297.7,315c-1.3,0-2.2-0.8-2.2-2v-0.2c0-1.2,0.8-2,2-2h0.2c1.2,0,2,0.8,2,2v0.2
		C299.7,314.2,298.7,315,297.7,315z"/>
	<path class="colocation1" d="M297.7,315L297.7,315c-1.3,0-2.2-0.8-2.2-2v-0.2c0-1.2,0.8-2,2-2h0.2c1.2,0,2,0.8,2,2v0.2
		C299.9,314.2,298.9,315,297.7,315z"/>
	<path class="colocation1" d="M297.7,305.7h-16.6c-1.2,0-2-0.8-2-2v-0.2c0-1.2,0.8-2,2-2h16.6c1.2,0,2,0.8,2,2v0.2
		C299.9,304.9,298.9,305.7,297.7,305.7z"/>
	<line class="colocation1" x1="274.6" y1="327.8" x2="274.6" y2="341.8"/>
	<path class="colocation1" d="M296.7,337.8h-0.3c-1.5,0-2.8-1.3-2.8-2.8v-0.3c0-1.5,1.3-2.8,2.8-2.8h0.3c1.5,0,2.8,1.3,2.8,2.8v0.3
		C299.4,336.4,298.2,337.8,296.7,337.8z"/>
	<path class="colocation1" d="M396.8,341.8h-49.3c-3.7,0-6.6-3-6.6-6.6v-0.7c0-3.7,3-6.6,6.6-6.6h49.3c3.7,0,6.6,3,6.6,6.6v0.7
		C403.4,338.8,400.6,341.8,396.8,341.8z"/>
	<path class="colocation1" d="M348.3,315L348.3,315c-1.3,0-2.2-0.8-2.2-2v-0.2c0-1.2,0.8-2,2-2h0.2c1.2,0,2,0.8,2,2v0.2
		C350.3,314.2,349.3,315,348.3,315z"/>
	<path class="colocation1" d="M356.7,315L356.7,315c-1.3,0-2.2-0.8-2.2-2v-0.2c0-1.2,0.8-2,2-2h0.2c1.2,0,2,0.8,2,2v0.2
		C358.9,314.2,357.9,315,356.7,315z"/>
	<path class="colocation1" d="M368.9,315L368.9,315c-1.3,0-2.2-0.8-2.2-2v-0.2c0-1.2,0.8-2,2-2h0.2c1.2,0,2,0.8,2,2v0.2
		C370.9,314.2,370,315,368.9,315z"/>
	<path class="colocation1" d="M348.3,305.7L348.3,305.7c-1.3,0-2.2-0.8-2.2-2v-0.2c0-1.2,0.8-2,2-2h0.2c1.2,0,2,0.8,2,2v0.2
		C350.3,304.9,349.3,305.7,348.3,305.7z"/>
	<path class="colocation1" d="M356.7,305.7L356.7,305.7c-1.3,0-2.2-0.8-2.2-2v-0.2c0-1.2,0.8-2,2-2h0.2c1.2,0,2,0.8,2,2v0.2
		C358.9,304.9,357.9,305.7,356.7,305.7z"/>
	<path class="colocation1" d="M401.4,305.7L401.4,305.7c-1.3,0-2.2-0.8-2.2-2v-0.2c0-1.2,0.8-2,2-2h0.2c1.2,0,2,0.8,2,2v0.2
		C403.4,304.9,402.4,305.7,401.4,305.7z"/>
	<path class="colocation1" d="M377.5,315L377.5,315c-1.3,0-2.2-0.8-2.2-2v-0.2c0-1.2,0.8-2,2-2h0.2c1.2,0,2,0.8,2,2v0.2
		C379.5,314.2,378.5,315,377.5,315z"/>
	<path class="colocation1" d="M386,315L386,315c-1.3,0-2.2-0.8-2.2-2v-0.2c0-1.2,0.8-2,2-2h0.2c1.2,0,2,0.8,2,2v0.2
		C388,314.2,387,315,386,315z"/>
	<path class="colocation1" d="M386,315L386,315c-1.3,0-2.2-0.8-2.2-2v-0.2c0-1.2,0.8-2,2-2h0.2c1.2,0,2,0.8,2,2v0.2
		C388.1,314.2,387.1,315,386,315z"/>
	<path class="colocation1" d="M386,305.7h-16.6c-1.2,0-2-0.8-2-2v-0.2c0-1.2,0.8-2,2-2H386c1.2,0,2,0.8,2,2v0.2
		C388.1,304.9,387.1,305.7,386,305.7z"/>
	<line class="colocation1" x1="362.7" y1="327.8" x2="362.7" y2="341.8"/>
	<path class="colocation1" d="M385,337.8h-0.3c-1.5,0-2.8-1.3-2.8-2.8v-0.3c0-1.5,1.3-2.8,2.8-2.8h0.3c1.5,0,2.8,1.3,2.8,2.8v0.3
		C387.6,336.4,386.5,337.8,385,337.8z"/>
	<line class="colocation1" x1="240" y1="287.6" x2="240" y2="353.6"/>
	<line class="colocation1" x1="120.6" y1="305.2" x2="120.6" y2="334.1"/>
	<line class="colocation1" x1="519.8" y1="305.2" x2="519.8" y2="334.1"/>
	<line class="colocation1" x1="328.8" y1="287.6" x2="328.8" y2="353.6"/>
	<line class="colocation1" x1="418.4" y1="287.6" x2="418.4" y2="353.6"/>
	<path id="svg-concept" class="colocation2" d="M572.7,642.6H67.5c-8.3,0-15-6.7-15-15V269.4c0-8.3,6.7-15,15-15h505.2c8.3,0,15,6.7,15,15v358.1
		C587.8,635.8,581,642.6,572.7,642.6z"/>
</g>
<g>
	<path class="colocation0" d="M175.7,122.3h347.9c4.8,0,8.6,4.3,8.6,9.5v46.9l0,0c0,5.3-3.8,9.5-8.6,9.5h-402c-4.8,0-8.6-4.3-8.6-9.5v-46.9
		c0-5.3,3.8-9.5,8.6-9.5L175.7,122.3"/>
	<line class="colocation1" x1="150.7" y1="122.3" x2="150.7" y2="187.9"/>
	<line class="colocation1" x1="489.5" y1="122.3" x2="489.5" y2="188.3"/>
	<path class="colocation1" d="M222.8,176.5h-49.3c-3.7,0-6.6-3-6.6-6.6v-0.7c0-3.7,3-6.6,6.6-6.6h49.3c3.7,0,6.6,3,6.6,6.6v0.7
		C229.5,173.5,226.5,176.5,222.8,176.5z"/>
	<path class="colocation1" d="M174.2,149.7H174c-1.2,0-2-0.8-2-2v-0.2c0-1.2,0.8-2,2-2h0.2c1.2,0,2,0.8,2,2v0.2
		C176.1,148.9,175.3,149.7,174.2,149.7z"/>
	<path class="colocation1" d="M182.6,149.7h-0.2c-1.2,0-2-0.8-2-2v-0.2c0-1.2,0.8-2,2-2h0.2c1.2,0,2,0.8,2,2v0.2
		C184.8,148.9,183.8,149.7,182.6,149.7z"/>
	<path class="colocation1" d="M194.8,149.7h-0.2c-1.2,0-2-0.8-2-2v-0.2c0-1.2,0.8-2,2-2h0.2c1.2,0,2,0.8,2,2v0.2
		C196.7,148.9,195.9,149.7,194.8,149.7z"/>
	<path class="colocation1" d="M174.2,140.4H174c-1.2,0-2-0.8-2-2v-0.2c0-1.2,0.8-2,2-2h0.2c1.2,0,2,0.8,2,2v0.2
		C176.1,139.6,175.3,140.4,174.2,140.4z"/>
	<path class="colocation1" d="M182.6,140.4h-0.2c-1.2,0-2-0.8-2-2v-0.2c0-1.2,0.8-2,2-2h0.2c1.2,0,2,0.8,2,2v0.2
		C184.8,139.6,183.8,140.4,182.6,140.4z"/>
	<path class="colocation1" d="M227.3,140.4h-0.2c-1.2,0-2-0.8-2-2v-0.2c0-1.2,0.8-2,2-2h0.2c1.2,0,2,0.8,2,2v0.2
		C229.3,139.6,228.3,140.4,227.3,140.4z"/>
	<path class="colocation1" d="M203.4,149.7h-0.2c-1.2,0-2-0.8-2-2v-0.2c0-1.2,0.8-2,2-2h0.2c1.2,0,2,0.8,2,2v0.2
		C205.4,148.9,204.6,149.7,203.4,149.7z"/>
	<path class="colocation1" d="M211.9,149.7h-0.2c-1.2,0-2-0.8-2-2v-0.2c0-1.2,0.8-2,2-2h0.2c1.2,0,2,0.8,2,2v0.2
		C213.9,148.9,212.9,149.7,211.9,149.7z"/>
	<path class="colocation1" d="M211.9,149.7h-0.2c-1.2,0-2-0.8-2-2v-0.2c0-1.2,0.8-2,2-2h0.2c1.2,0,2,0.8,2,2v0.2
		C214,148.9,213,149.7,211.9,149.7z"/>
	<path class="colocation1" d="M211.9,140.4h-16.6c-1.2,0-2-0.8-2-2v-0.2c0-1.2,0.8-2,2-2h16.6c1.2,0,2,0.8,2,2v0.2
		C214,139.6,213,140.4,211.9,140.4z"/>
	<line class="colocation1" x1="188.8" y1="162.5" x2="188.8" y2="176.5"/>
	<path class="colocation1" d="M210.9,172.5h-0.3c-1.5,0-2.8-1.3-2.8-2.8v-0.3c0-1.5,1.3-2.8,2.8-2.8h0.3c1.5,0,2.8,1.3,2.8,2.8v0.3
		C213.5,171.2,212.4,172.5,210.9,172.5z"/>
	<path class="colocation1" d="M311.1,176.5h-49.3c-3.7,0-6.6-3-6.6-6.6v-0.7c0-3.7,3-6.6,6.6-6.6h49.3c3.7,0,6.6,3,6.6,6.6v0.7
		C317.7,173.5,314.8,176.5,311.1,176.5z"/>
	<path class="colocation1" d="M262.4,149.7h-0.3c-1.2,0-2-0.8-2-2v-0.2c0-1.2,0.8-2,2-2h0.2c1.2,0,2,0.8,2,2v0.2
		C264.4,148.9,263.4,149.7,262.4,149.7z"/>
	<path class="colocation1" d="M270.9,149.7L270.9,149.7c-1.3,0-2.2-0.8-2.2-2v-0.2c0-1.2,0.8-2,2-2h0.2c1.2,0,2,0.8,2,2v0.2
		C272.9,148.9,272.1,149.7,270.9,149.7z"/>
	<path class="colocation1" d="M282.9,149.7L282.9,149.7c-1.3,0-2.2-0.8-2.2-2v-0.2c0-1.2,0.8-2,2-2h0.2c1.2,0,2,0.8,2,2v0.2
		C285,148.9,284.2,149.7,282.9,149.7z"/>
	<path class="colocation1" d="M262.4,140.4h-0.3c-1.2,0-2-0.8-2-2v-0.2c0-1.2,0.8-2,2-2h0.2c1.2,0,2,0.8,2,2v0.2
		C264.4,139.6,263.4,140.4,262.4,140.4z"/>
	<path class="colocation1" d="M270.9,140.4L270.9,140.4c-1.3,0-2.2-0.8-2.2-2v-0.2c0-1.2,0.8-2,2-2h0.2c1.2,0,2,0.8,2,2v0.2
		C272.9,139.6,272.1,140.4,270.9,140.4z"/>
	<path class="colocation1" d="M315.6,140.4h-0.3c-1.2,0-2-0.8-2-2v-0.2c0-1.2,0.8-2,2-2h0.2c1.2,0,2,0.8,2,2v0.2
		C317.4,139.6,316.6,140.4,315.6,140.4z"/>
	<path class="colocation1" d="M291.7,149.7L291.7,149.7c-1.3,0-2.2-0.8-2.2-2v-0.2c0-1.2,0.8-2,2-2h0.2c1.2,0,2,0.8,2,2v0.2
		C293.7,148.9,292.7,149.7,291.7,149.7z"/>
	<path class="colocation1" d="M300.1,149.7L300.1,149.7c-1.3,0-2.2-0.8-2.2-2v-0.2c0-1.2,0.8-2,2-2h0.2c1.2,0,2,0.8,2,2v0.2
		C302.1,148.9,301.1,149.7,300.1,149.7z"/>
	<path class="colocation1" d="M300.1,149.7L300.1,149.7c-1.3,0-2.2-0.8-2.2-2v-0.2c0-1.2,0.8-2,2-2h0.2c1.2,0,2,0.8,2,2v0.2
		C302.3,148.9,301.3,149.7,300.1,149.7z"/>
	<path class="colocation1" d="M300.1,140.4h-16.6c-1.2,0-2-0.8-2-2v-0.2c0-1.2,0.8-2,2-2h16.6c1.2,0,2,0.8,2,2v0.2
		C302.3,139.6,301.3,140.4,300.1,140.4z"/>
	<line class="colocation1" x1="277" y1="162.5" x2="277" y2="176.5"/>
	<path class="colocation1" d="M299.1,172.5h-0.3c-1.5,0-2.8-1.3-2.8-2.8v-0.3c0-1.5,1.3-2.8,2.8-2.8h0.3c1.5,0,2.8,1.3,2.8,2.8v0.3
		C301.8,171.2,300.6,172.5,299.1,172.5z"/>
	<path class="colocation1" d="M399.2,176.5h-49.3c-3.7,0-6.6-3-6.6-6.6v-0.7c0-3.7,3-6.6,6.6-6.6h49.3c3.7,0,6.6,3,6.6,6.6v0.7
		C405.8,173.5,403,176.5,399.2,176.5z"/>
	<path class="colocation1" d="M350.7,149.7L350.7,149.7c-1.3,0-2.2-0.8-2.2-2v-0.2c0-1.2,0.8-2,2-2h0.2c1.2,0,2,0.8,2,2v0.2
		C352.7,148.9,351.7,149.7,350.7,149.7z"/>
	<path class="colocation1" d="M359.2,149.7L359.2,149.7c-1.3,0-2.2-0.8-2.2-2v-0.2c0-1.2,0.8-2,2-2h0.2c1.2,0,2,0.8,2,2v0.2
		C361.3,148.9,360.3,149.7,359.2,149.7z"/>
	<path class="colocation1" d="M371.3,149.7L371.3,149.7c-1.3,0-2.2-0.8-2.2-2v-0.2c0-1.2,0.8-2,2-2h0.2c1.2,0,2,0.8,2,2v0.2
		C373.3,148.9,372.5,149.7,371.3,149.7z"/>
	<path class="colocation1" d="M350.7,140.4L350.7,140.4c-1.3,0-2.2-0.8-2.2-2v-0.2c0-1.2,0.8-2,2-2h0.2c1.2,0,2,0.8,2,2v0.2
		C352.7,139.6,351.7,140.4,350.7,140.4z"/>
	<path class="colocation1" d="M359.2,140.4L359.2,140.4c-1.3,0-2.2-0.8-2.2-2v-0.2c0-1.2,0.8-2,2-2h0.2c1.2,0,2,0.8,2,2v0.2
		C361.3,139.6,360.3,140.4,359.2,140.4z"/>
	<path class="colocation1" d="M403.9,140.4L403.9,140.4c-1.3,0-2.2-0.8-2.2-2v-0.2c0-1.2,0.8-2,2-2h0.2c1.2,0,2,0.8,2,2v0.2
		C405.8,139.6,404.9,140.4,403.9,140.4z"/>
	<path class="colocation1" d="M379.9,149.7L379.9,149.7c-1.3,0-2.2-0.8-2.2-2v-0.2c0-1.2,0.8-2,2-2h0.2c1.2,0,2,0.8,2,2v0.2
		C381.9,148.9,380.9,149.7,379.9,149.7z"/>
	<path class="colocation1" d="M388.4,149.7L388.4,149.7c-1.3,0-2.2-0.8-2.2-2v-0.2c0-1.2,0.8-2,2-2h0.2c1.2,0,2,0.8,2,2v0.2
		C390.4,148.9,389.4,149.7,388.4,149.7z"/>
	<path class="colocation1" d="M388.4,149.7L388.4,149.7c-1.3,0-2.2-0.8-2.2-2v-0.2c0-1.2,0.8-2,2-2h0.2c1.2,0,2,0.8,2,2v0.2
		C390.6,148.9,389.6,149.7,388.4,149.7z"/>
	<path class="colocation1" d="M388.4,140.4h-16.6c-1.2,0-2-0.8-2-2v-0.2c0-1.2,0.8-2,2-2h16.6c1.2,0,2,0.8,2,2v0.2
		C390.6,139.6,389.6,140.4,388.4,140.4z"/>
	<line class="colocation1" x1="365.1" y1="162.5" x2="365.1" y2="176.5"/>
	<path class="colocation1" d="M387.4,172.5h-0.3c-1.5,0-2.8-1.3-2.8-2.8v-0.3c0-1.5,1.3-2.8,2.8-2.8h0.3c1.5,0,2.8,1.3,2.8,2.8v0.3
		C390.1,171.2,388.9,172.5,387.4,172.5z"/>
	<line class="colocation1" x1="242.5" y1="122.3" x2="242.5" y2="188.3"/>
	<line class="colocation1" x1="123.1" y1="139.9" x2="123.1" y2="168.8"/>
	<line class="colocation1" x1="522.3" y1="139.9" x2="522.3" y2="168.8"/>
	<line class="colocation1" x1="331.2" y1="122.3" x2="331.2" y2="188.3"/>
	<line class="colocation1" x1="420.8" y1="122.3" x2="420.8" y2="188.3"/>
	<path class="colocation0" d="M175.7,37h347.9c4.8,0,8.6,4.3,8.6,9.5v46.9l0,0c0,5.3-3.8,9.5-8.6,9.5h-402c-4.8,0-8.6-4.3-8.6-9.5V46.5
		c0-5.3,3.8-9.5,8.6-9.5H175.7"/>
	<line class="colocation1" x1="150.7" y1="37" x2="150.7" y2="102.7"/>
	<line class="colocation1" x1="489.5" y1="37" x2="489.5" y2="103"/>
	<path class="colocation1" d="M222.8,91.2h-49.3c-3.7,0-6.6-3-6.6-6.6v-0.7c0-3.7,3-6.6,6.6-6.6h49.3c3.7,0,6.6,3,6.6,6.6v0.7
		C229.5,88.2,226.5,91.2,222.8,91.2z"/>
	<path class="colocation1" d="M174.2,64.5H174c-1.2,0-2-0.8-2-2v-0.2c0-1.2,0.8-2,2-2h0.2c1.2,0,2,0.8,2,2v0.2
		C176.1,63.6,175.3,64.5,174.2,64.5z"/>
	<path class="colocation1" d="M182.6,64.5h-0.2c-1.2,0-2-0.8-2-2v-0.2c0-1.2,0.8-2,2-2h0.2c1.2,0,2,0.8,2,2v0.2
		C184.8,63.6,183.8,64.5,182.6,64.5z"/>
	<path class="colocation1" d="M194.8,64.5h-0.2c-1.2,0-2-0.8-2-2v-0.2c0-1.2,0.8-2,2-2h0.2c1.2,0,2,0.8,2,2v0.2
		C196.7,63.6,195.9,64.5,194.8,64.5z"/>
	<path class="colocation1" d="M174.2,55.2H174c-1.2,0-2-0.8-2-2V53c0-1.2,0.8-2,2-2h0.2c1.2,0,2,0.8,2,2v0.2
		C176.1,54.3,175.3,55.2,174.2,55.2z"/>
	<path class="colocation1" d="M182.6,55.2h-0.2c-1.2,0-2-0.8-2-2V53c0-1.2,0.8-2,2-2h0.2c1.2,0,2,0.8,2,2v0.2
		C184.8,54.3,183.8,55.2,182.6,55.2z"/>
	<path class="colocation1" d="M227.3,55.2h-0.2c-1.2,0-2-0.8-2-2V53c0-1.2,0.8-2,2-2h0.2c1.2,0,2,0.8,2,2v0.2
		C229.3,54.3,228.3,55.2,227.3,55.2z"/>
	<path class="colocation1" d="M203.4,64.5h-0.2c-1.2,0-2-0.8-2-2v-0.2c0-1.2,0.8-2,2-2h0.2c1.2,0,2,0.8,2,2v0.2
		C205.4,63.6,204.6,64.5,203.4,64.5z"/>
	<path class="colocation1" d="M211.9,64.5h-0.2c-1.2,0-2-0.8-2-2v-0.2c0-1.2,0.8-2,2-2h0.2c1.2,0,2,0.8,2,2v0.2
		C213.9,63.6,212.9,64.5,211.9,64.5z"/>
	<path class="colocation1" d="M211.9,64.5h-0.2c-1.2,0-2-0.8-2-2v-0.2c0-1.2,0.8-2,2-2h0.2c1.2,0,2,0.8,2,2v0.2
		C214,63.6,213,64.5,211.9,64.5z"/>
	<path class="colocation1" d="M211.9,55.2h-16.6c-1.2,0-2-0.8-2-2V53c0-1.2,0.8-2,2-2h16.6c1.2,0,2,0.8,2,2v0.2
		C214,54.3,213,55.2,211.9,55.2z"/>
	<line class="colocation1" x1="188.8" y1="77.3" x2="188.8" y2="91.2"/>
	<path class="colocation1" d="M210.9,87.2h-0.3c-1.5,0-2.8-1.3-2.8-2.8v-0.3c0-1.5,1.3-2.8,2.8-2.8h0.3c1.5,0,2.8,1.3,2.8,2.8v0.3
		C213.5,85.9,212.4,87.2,210.9,87.2z"/>
	<path class="colocation1" d="M311.1,91.2h-49.3c-3.7,0-6.6-3-6.6-6.6v-0.7c0-3.7,3-6.6,6.6-6.6h49.3c3.7,0,6.6,3,6.6,6.6v0.7
		C317.7,88.2,314.8,91.2,311.1,91.2z"/>
	<path class="colocation1" d="M262.4,64.5h-0.3c-1.2,0-2-0.8-2-2v-0.2c0-1.2,0.8-2,2-2h0.2c1.2,0,2,0.8,2,2v0.2
		C264.4,63.6,263.4,64.5,262.4,64.5z"/>
	<path class="colocation1" d="M270.9,64.5L270.9,64.5c-1.3,0-2.2-0.8-2.2-2v-0.2c0-1.2,0.8-2,2-2h0.2c1.2,0,2,0.8,2,2v0.2
		C272.9,63.6,272.1,64.5,270.9,64.5z"/>
	<path class="colocation1" d="M282.9,64.5L282.9,64.5c-1.3,0-2.2-0.8-2.2-2v-0.2c0-1.2,0.8-2,2-2h0.2c1.2,0,2,0.8,2,2v0.2
		C285,63.6,284.2,64.5,282.9,64.5z"/>
	<path class="colocation1" d="M262.4,55.2h-0.3c-1.2,0-2-0.8-2-2V53c0-1.2,0.8-2,2-2h0.2c1.2,0,2,0.8,2,2v0.2
		C264.4,54.3,263.4,55.2,262.4,55.2z"/>
	<path class="colocation1" d="M270.9,55.2L270.9,55.2c-1.3,0-2.2-0.8-2.2-2V53c0-1.2,0.8-2,2-2h0.2c1.2,0,2,0.8,2,2v0.2
		C272.9,54.3,272.1,55.2,270.9,55.2z"/>
	<path class="colocation1" d="M315.6,55.2h-0.3c-1.2,0-2-0.8-2-2V53c0-1.2,0.8-2,2-2h0.2c1.2,0,2,0.8,2,2v0.2
		C317.4,54.3,316.6,55.2,315.6,55.2z"/>
	<path class="colocation1" d="M291.7,64.5L291.7,64.5c-1.3,0-2.2-0.8-2.2-2v-0.2c0-1.2,0.8-2,2-2h0.2c1.2,0,2,0.8,2,2v0.2
		C293.7,63.6,292.7,64.5,291.7,64.5z"/>
	<path class="colocation1" d="M300.1,64.5L300.1,64.5c-1.3,0-2.2-0.8-2.2-2v-0.2c0-1.2,0.8-2,2-2h0.2c1.2,0,2,0.8,2,2v0.2
		C302.1,63.6,301.1,64.5,300.1,64.5z"/>
	<path class="colocation1" d="M300.1,64.5L300.1,64.5c-1.3,0-2.2-0.8-2.2-2v-0.2c0-1.2,0.8-2,2-2h0.2c1.2,0,2,0.8,2,2v0.2
		C302.3,63.6,301.3,64.5,300.1,64.5z"/>
	<path class="colocation1" d="M300.1,55.2h-16.6c-1.2,0-2-0.8-2-2V53c0-1.2,0.8-2,2-2h16.6c1.2,0,2,0.8,2,2v0.2
		C302.3,54.3,301.3,55.2,300.1,55.2z"/>
	<line class="colocation1" x1="277" y1="77.3" x2="277" y2="91.2"/>
	<path class="colocation1" d="M299.1,87.2h-0.3c-1.5,0-2.8-1.3-2.8-2.8v-0.3c0-1.5,1.3-2.8,2.8-2.8h0.3c1.5,0,2.8,1.3,2.8,2.8v0.3
		C301.8,85.9,300.6,87.2,299.1,87.2z"/>
	<path class="colocation1" d="M399.2,91.2h-49.3c-3.7,0-6.6-3-6.6-6.6v-0.7c0-3.7,3-6.6,6.6-6.6h49.3c3.7,0,6.6,3,6.6,6.6v0.7
		C405.8,88.2,403,91.2,399.2,91.2z"/>
	<path class="colocation1" d="M350.7,64.5L350.7,64.5c-1.3,0-2.2-0.8-2.2-2v-0.2c0-1.2,0.8-2,2-2h0.2c1.2,0,2,0.8,2,2v0.2
		C352.7,63.6,351.7,64.5,350.7,64.5z"/>
	<path class="colocation1" d="M359.2,64.5L359.2,64.5c-1.3,0-2.2-0.8-2.2-2v-0.2c0-1.2,0.8-2,2-2h0.2c1.2,0,2,0.8,2,2v0.2
		C361.3,63.6,360.3,64.5,359.2,64.5z"/>
	<path class="colocation1" d="M371.3,64.5L371.3,64.5c-1.3,0-2.2-0.8-2.2-2v-0.2c0-1.2,0.8-2,2-2h0.2c1.2,0,2,0.8,2,2v0.2
		C373.3,63.6,372.5,64.5,371.3,64.5z"/>
	<path class="colocation1" d="M350.7,55.2L350.7,55.2c-1.3,0-2.2-0.8-2.2-2V53c0-1.2,0.8-2,2-2h0.2c1.2,0,2,0.8,2,2v0.2
		C352.7,54.3,351.7,55.2,350.7,55.2z"/>
	<path class="colocation1" d="M359.2,55.2L359.2,55.2c-1.3,0-2.2-0.8-2.2-2V53c0-1.2,0.8-2,2-2h0.2c1.2,0,2,0.8,2,2v0.2
		C361.3,54.3,360.3,55.2,359.2,55.2z"/>
	<path class="colocation1" d="M403.9,55.2L403.9,55.2c-1.3,0-2.2-0.8-2.2-2V53c0-1.2,0.8-2,2-2h0.2c1.2,0,2,0.8,2,2v0.2
		C405.8,54.3,404.9,55.2,403.9,55.2z"/>
	<path class="colocation1" d="M379.9,64.5L379.9,64.5c-1.3,0-2.2-0.8-2.2-2v-0.2c0-1.2,0.8-2,2-2h0.2c1.2,0,2,0.8,2,2v0.2
		C381.9,63.6,380.9,64.5,379.9,64.5z"/>
	<path class="colocation1" d="M388.4,64.5L388.4,64.5c-1.3,0-2.2-0.8-2.2-2v-0.2c0-1.2,0.8-2,2-2h0.2c1.2,0,2,0.8,2,2v0.2
		C390.4,63.6,389.4,64.5,388.4,64.5z"/>
	<path class="colocation1" d="M388.4,64.5L388.4,64.5c-1.3,0-2.2-0.8-2.2-2v-0.2c0-1.2,0.8-2,2-2h0.2c1.2,0,2,0.8,2,2v0.2
		C390.6,63.6,389.6,64.5,388.4,64.5z"/>
	<path class="colocation1" d="M388.4,55.2h-16.6c-1.2,0-2-0.8-2-2V53c0-1.2,0.8-2,2-2h16.6c1.2,0,2,0.8,2,2v0.2
		C390.6,54.3,389.6,55.2,388.4,55.2z"/>
	<line class="colocation1" x1="365.1" y1="77.3" x2="365.1" y2="91.2"/>
	<path class="colocation1" d="M387.4,87.2h-0.3c-1.5,0-2.8-1.3-2.8-2.8v-0.3c0-1.5,1.3-2.8,2.8-2.8h0.3c1.5,0,2.8,1.3,2.8,2.8v0.3
		C390.1,85.9,388.9,87.2,387.4,87.2z"/>
	<line class="colocation1" x1="242.5" y1="37" x2="242.5" y2="103"/>
	<line class="colocation1" x1="123.1" y1="54.7" x2="123.1" y2="83.6"/>
	<line class="colocation1" x1="522.3" y1="54.7" x2="522.3" y2="83.6"/>
	<line class="colocation1" x1="331.2" y1="37" x2="331.2" y2="103"/>
	<line class="colocation1" x1="420.8" y1="37" x2="420.8" y2="103"/>
	<path id="svg-concept" class="colocation2" d="M590.2,204.7c0,7.8-6.3,14.2-14.2,14.2H69.1c-7.8,0-14.2-6.3-14.2-14.2v-184c0-7.8,6.3-14.2,14.2-14.2H576
		c7.8,0,14.2,6.3,14.2,14.2V204.7z"/>
</g>
<g>
	<g>
		<path id="svg-concept" class="colocation3" d="M224.9,570.8h-0.2c-1.2,0-2-0.8-2-2v-0.2c0-1.2,0.8-2,2-2h0.2c1.2,0,2,0.8,2,2v0.2
			C227,570,226.1,570.8,224.9,570.8z"/>
		
			<animate  accumulate="none" additive="replace" attributeName="opacity" calcMode="linear" dur="1s" fill="remove" repeatCount="indefinite" restart="always" values="0;1;0">
			</animate>
	</g>
	<path id="svg-concept" class="colocation3" d="M219.2,593.6h-0.3c-1.5,0-2.8-1.3-2.8-2.8v-0.3c0-1.5,1.3-2.8,2.8-2.8h0.3c1.5,0,2.8,1.3,2.8,2.8v0.3
		C222.1,592.3,220.7,593.6,219.2,593.6z"/>
	<g>
		<path id="svg-concept" class="colocation3" d="M313.2,570.8L313.2,570.8c-1.3,0-2.2-0.8-2.2-2v-0.2c0-1.2,0.8-2,2-2h0.2c1.2,0,2,0.8,2,2v0.2
			C315.3,570,314.3,570.8,313.2,570.8z"/>
		
			<animate  accumulate="none" additive="replace" attributeName="opacity" calcMode="linear" dur="1s" fill="remove" repeatCount="indefinite" restart="always" values="0;1;0">
			</animate>
	</g>
	<path id="svg-concept" class="colocation3" d="M307.5,593.6h-0.3c-1.5,0-2.8-1.3-2.8-2.8v-0.3c0-1.5,1.3-2.8,2.8-2.8h0.3c1.5,0,2.8,1.3,2.8,2.8v0.3
		C310.3,592.3,309,593.6,307.5,593.6z"/>
	<g>
		<path id="svg-concept" class="colocation3" d="M401.4,570.8L401.4,570.8c-1.3,0-2.2-0.8-2.2-2v-0.2c0-1.2,0.8-2,2-2h0.2c1.2,0,2,0.8,2,2v0.2
			C403.4,570,402.6,570.8,401.4,570.8z"/>
		
			<animate  accumulate="none" additive="replace" attributeName="opacity" calcMode="linear" dur="1s" fill="remove" repeatCount="indefinite" restart="always" values="0;1;0">
			</animate>
	</g>
	<path id="svg-concept" class="colocation3" d="M395.8,593.6h-0.3c-1.5,0-2.8-1.3-2.8-2.8v-0.3c0-1.5,1.3-2.8,2.8-2.8h0.3c1.5,0,2.8,1.3,2.8,2.8v0.3
		C398.6,592.3,397.3,593.6,395.8,593.6z"/>
	<g>
		<path id="svg-concept" class="colocation3" d="M224.9,485.6h-0.2c-1.2,0-2-0.8-2-2v-0.2c0-1.2,0.8-2,2-2h0.2c1.2,0,2,0.8,2,2v0.2
			C227,484.7,226.1,485.6,224.9,485.6z"/>
		
			<animate  accumulate="none" additive="replace" attributeName="opacity" calcMode="linear" dur="1s" fill="remove" repeatCount="indefinite" restart="always" values="0;1;0">
			</animate>
	</g>
	<path id="svg-concept" class="colocation3" d="M219.2,508.3h-0.3c-1.5,0-2.8-1.3-2.8-2.8v-0.3c0-1.5,1.3-2.8,2.8-2.8h0.3c1.5,0,2.8,1.3,2.8,2.8v0.3
		C222.1,507,220.7,508.3,219.2,508.3z"/>
	<g>
		<path id="svg-concept" class="colocation3" d="M313.2,485.6L313.2,485.6c-1.3,0-2.2-0.8-2.2-2v-0.2c0-1.2,0.8-2,2-2h0.2c1.2,0,2,0.8,2,2v0.2
			C315.3,484.7,314.3,485.6,313.2,485.6z"/>
	</g>
	<path id="svg-concept" class="colocation3" d="M307.5,508.3h-0.3c-1.5,0-2.8-1.3-2.8-2.8v-0.3c0-1.5,1.3-2.8,2.8-2.8h0.3c1.5,0,2.8,1.3,2.8,2.8v0.3
		C310.3,507,309,508.3,307.5,508.3z"/>
	<g>
		<path id="svg-concept" class="colocation3" d="M401.4,485.6L401.4,485.6c-1.3,0-2.2-0.8-2.2-2v-0.2c0-1.2,0.8-2,2-2h0.2c1.2,0,2,0.8,2,2v0.2
			C403.4,484.7,402.6,485.6,401.4,485.6z"/>
		
			<animate  accumulate="none" additive="replace" attributeName="opacity" calcMode="linear" dur="1s" fill="remove" repeatCount="indefinite" restart="always" values="0;1;0">
			</animate>
	</g>
	<path id="svg-concept" class="colocation3" d="M395.8,508.3h-0.3c-1.5,0-2.8-1.3-2.8-2.8v-0.3c0-1.5,1.3-2.8,2.8-2.8h0.3c1.5,0,2.8,1.3,2.8,2.8v0.3
		C398.6,507,397.3,508.3,395.8,508.3z"/>
	<path id="svg-concept" class="colocation3" d="M224.9,400.3h-0.2c-1.2,0-2-0.8-2-2v-0.2c0-1.2,0.8-2,2-2h0.2c1.2,0,2,0.8,2,2v0.2
		C227,399.5,226.1,400.3,224.9,400.3z"/>
	<path id="svg-concept" class="colocation3" d="M219.2,423h-0.3c-1.5,0-2.8-1.3-2.8-2.8v-0.3c0-1.5,1.3-2.8,2.8-2.8h0.3c1.5,0,2.8,1.3,2.8,2.8v0.3
		C222.1,421.7,220.7,423,219.2,423z"/>
	<path id="svg-concept" class="colocation3" d="M313.2,400.3L313.2,400.3c-1.3,0-2.2-0.8-2.2-2v-0.2c0-1.2,0.8-2,2-2h0.2c1.2,0,2,0.8,2,2v0.2
		C315.3,399.5,314.3,400.3,313.2,400.3z"/>
	<path id="svg-concept" class="colocation3" d="M307.5,423h-0.3c-1.5,0-2.8-1.3-2.8-2.8v-0.3c0-1.5,1.3-2.8,2.8-2.8h0.3c1.5,0,2.8,1.3,2.8,2.8v0.3
		C310.3,421.7,309,423,307.5,423z"/>
	<path id="svg-concept" class="colocation3" d="M401.4,400.3L401.4,400.3c-1.3,0-2.2-0.8-2.2-2v-0.2c0-1.2,0.8-2,2-2h0.2c1.2,0,2,0.8,2,2v0.2
		C403.4,399.5,402.6,400.3,401.4,400.3z"/>
	<g>
		<path id="svg-concept" class="colocation3" d="M395.8,423h-0.3c-1.5,0-2.8-1.3-2.8-2.8v-0.3c0-1.5,1.3-2.8,2.8-2.8h0.3c1.5,0,2.8,1.3,2.8,2.8v0.3
			C398.6,421.7,397.3,423,395.8,423z"/>
		
			<animate  accumulate="none" additive="replace" attributeName="opacity" calcMode="linear" dur="1s" fill="remove" repeatCount="indefinite" restart="always" values="0;1;0">
			</animate>
	</g>
	<path id="svg-concept" class="colocation3" d="M224.9,315h-0.2c-1.2,0-2-0.8-2-2v-0.2c0-1.2,0.8-2,2-2h0.2c1.2,0,2,0.8,2,2v0.2
		C227,314.2,226.1,315,224.9,315z"/>
	<path id="svg-concept" class="colocation3" d="M219.2,337.8h-0.3c-1.5,0-2.8-1.3-2.8-2.8v-0.3c0-1.5,1.3-2.8,2.8-2.8h0.3c1.5,0,2.8,1.3,2.8,2.8v0.3
		C222.1,336.4,220.7,337.8,219.2,337.8z"/>
	<g>
		<path id="svg-concept" class="colocation3" d="M313.2,315L313.2,315c-1.3,0-2.2-0.8-2.2-2v-0.2c0-1.2,0.8-2,2-2h0.2c1.2,0,2,0.8,2,2v0.2
			C315.3,314.2,314.3,315,313.2,315z"/>
		
			<animate  accumulate="none" additive="replace" attributeName="opacity" calcMode="linear" dur="1s" fill="remove" repeatCount="indefinite" restart="always" values="0;1;0">
			</animate>
	</g>
	<path id="svg-concept" class="colocation3" d="M307.5,337.8h-0.3c-1.5,0-2.8-1.3-2.8-2.8v-0.3c0-1.5,1.3-2.8,2.8-2.8h0.3c1.5,0,2.8,1.3,2.8,2.8v0.3
		C310.3,336.4,309,337.8,307.5,337.8z"/>
	<path id="svg-concept" class="colocation3" d="M401.4,315L401.4,315c-1.3,0-2.2-0.8-2.2-2v-0.2c0-1.2,0.8-2,2-2h0.2c1.2,0,2,0.8,2,2v0.2
		C403.4,314.2,402.6,315,401.4,315z"/>
	<g>
		<path id="svg-concept" class="colocation3" d="M395.8,337.8h-0.3c-1.5,0-2.8-1.3-2.8-2.8v-0.3c0-1.5,1.3-2.8,2.8-2.8h0.3c1.5,0,2.8,1.3,2.8,2.8v0.3
			C398.6,336.4,397.3,337.8,395.8,337.8z"/>
		
			<animate  accumulate="none" additive="replace" attributeName="opacity" calcMode="linear" dur="1s" fill="remove" repeatCount="indefinite" restart="always" values="0;1;0">
			</animate>
	</g>
</g>
<g>
	<g>
		<path id="svg-concept" class="colocation3" d="M227.3,149.7h-0.2c-1.2,0-2-0.8-2-2v-0.2c0-1.2,0.8-2,2-2h0.2c1.2,0,2,0.8,2,2v0.2
			C229.5,148.9,228.5,149.7,227.3,149.7z"/>
		
			<animate  accumulate="none" additive="replace" attributeName="opacity" calcMode="linear" dur="1s" fill="remove" repeatCount="indefinite" restart="always" values="0;1;0">
			</animate>
	</g>
	<path id="svg-concept" class="colocation3" d="M221.7,172.5h-0.3c-1.5,0-2.8-1.3-2.8-2.8v-0.3c0-1.5,1.3-2.8,2.8-2.8h0.3c1.5,0,2.8,1.3,2.8,2.8v0.3
		C224.5,171.2,223.2,172.5,221.7,172.5z"/>
	<g>
		<path id="svg-concept" class="colocation3" d="M315.6,149.7L315.6,149.7c-1.3,0-2.2-0.8-2.2-2v-0.2c0-1.2,0.8-2,2-2h0.2c1.2,0,2,0.8,2,2v0.2
			C317.7,148.9,316.7,149.7,315.6,149.7z"/>
		
			<animate  accumulate="none" additive="replace" attributeName="opacity" calcMode="linear" dur="1s" fill="remove" repeatCount="indefinite" restart="always" values="0;1;0">
			</animate>
	</g>
	<path id="svg-concept" class="colocation3" d="M309.9,172.5h-0.3c-1.5,0-2.8-1.3-2.8-2.8v-0.3c0-1.5,1.3-2.8,2.8-2.8h0.3c1.5,0,2.8,1.3,2.8,2.8v0.3
		C312.8,171.2,311.4,172.5,309.9,172.5z"/>
	<g>
		<path id="svg-concept" class="colocation3" d="M403.9,149.7L403.9,149.7c-1.3,0-2.2-0.8-2.2-2v-0.2c0-1.2,0.8-2,2-2h0.2c1.2,0,2,0.8,2,2v0.2
			C405.8,148.9,405,149.7,403.9,149.7z"/>
		
			<animate  accumulate="none" additive="replace" attributeName="opacity" calcMode="linear" dur="1s" fill="remove" repeatCount="indefinite" restart="always" values="0;1;0">
			</animate>
	</g>
	<path id="svg-concept" class="colocation3" d="M398.2,172.5h-0.3c-1.5,0-2.8-1.3-2.8-2.8v-0.3c0-1.5,1.3-2.8,2.8-2.8h0.3c1.5,0,2.8,1.3,2.8,2.8v0.3
		C401,171.2,399.7,172.5,398.2,172.5z"/>
	<g>
		<path id="svg-concept" class="colocation3" d="M227.3,64.5h-0.2c-1.2,0-2-0.8-2-2v-0.2c0-1.2,0.8-2,2-2h0.2c1.2,0,2,0.8,2,2v0.2
			C229.5,63.6,228.5,64.5,227.3,64.5z"/>
		
			<animate  accumulate="none" additive="replace" attributeName="opacity" calcMode="linear" dur="1s" fill="remove" repeatCount="indefinite" restart="always" values="0;1;0">
			</animate>
	</g>
	<path id="svg-concept" class="colocation3" d="M221.7,87.2h-0.3c-1.5,0-2.8-1.3-2.8-2.8v-0.3c0-1.5,1.3-2.8,2.8-2.8h0.3c1.5,0,2.8,1.3,2.8,2.8v0.3
		C224.5,85.9,223.2,87.2,221.7,87.2z"/>
	<path id="svg-concept" class="colocation3" d="M315.6,64.5L315.6,64.5c-1.3,0-2.2-0.8-2.2-2v-0.2c0-1.2,0.8-2,2-2h0.2c1.2,0,2,0.8,2,2v0.2
		C317.7,63.6,316.7,64.5,315.6,64.5z"/>
	<path id="svg-concept" class="colocation3" d="M309.9,87.2h-0.3c-1.5,0-2.8-1.3-2.8-2.8v-0.3c0-1.5,1.3-2.8,2.8-2.8h0.3c1.5,0,2.8,1.3,2.8,2.8v0.3
		C312.8,85.9,311.4,87.2,309.9,87.2z"/>
	<path id="svg-concept" class="colocation3" d="M403.9,64.5L403.9,64.5c-1.3,0-2.2-0.8-2.2-2v-0.2c0-1.2,0.8-2,2-2h0.2c1.2,0,2,0.8,2,2v0.2
		C405.8,63.6,405,64.5,403.9,64.5z"/>
	<path id="svg-concept" class="colocation3" d="M398.2,87.2h-0.3c-1.5,0-2.8-1.3-2.8-2.8v-0.3c0-1.5,1.3-2.8,2.8-2.8h0.3c1.5,0,2.8,1.3,2.8,2.8v0.3
		C401,85.9,399.7,87.2,398.2,87.2z"/>
</g>
<g>
	<circle id="svg-concept" class="colocation3" cx="453.4" cy="576.4" r="16.9"/>
	<path id="svg-concept" class="colocation3" d="M459.8,576.4c0,3.5-2.8,6.3-6.3,6.3c-3.5,0-6.3-2.8-6.3-6.3c0-3.6,2.8-6.3,6.3-6.3
		C456.9,570.1,459.8,572.9,459.8,576.4z M470.5,576.4h-10.7 M447.1,576.4h-10.7"/>
</g>
<g>
	<circle id="svg-concept" class="colocation3" cx="453.4" cy="491.1" r="16.9"/>
	<path id="svg-concept" class="colocation3" d="M459.8,491.1c0,3.5-2.8,6.3-6.3,6.3c-3.5,0-6.3-2.8-6.3-6.3c0-3.6,2.8-6.3,6.3-6.3
		C456.9,484.8,459.8,487.6,459.8,491.1z M470.5,491.1h-10.7 M447.1,491.1h-10.7"/>
</g>
<g>
	<circle id="svg-concept" class="colocation3" cx="453.4" cy="407.2" r="16.9"/>
	<path id="svg-concept" class="colocation3" d="M459.8,407.2c0,3.5-2.8,6.3-6.3,6.3c-3.5,0-6.3-2.8-6.3-6.3c0-3.6,2.8-6.3,6.3-6.3
		C456.9,401,459.8,403.8,459.8,407.2z M470.5,407.2h-10.7 M447.1,407.2h-10.7"/>
</g>
<g>
	<circle id="svg-concept" class="colocation3" cx="453.4" cy="323.3" r="16.9"/>
	<path id="svg-concept" class="colocation3" d="M459.8,323.3c0,3.5-2.8,6.3-6.3,6.3c-3.5,0-6.3-2.8-6.3-6.3c0-3.6,2.8-6.3,6.3-6.3
		C456.9,317,459.8,319.8,459.8,323.3z M470.5,323.3h-10.7 M447.1,323.3h-10.7"/>
</g>
<g>
	<circle id="svg-concept" class="colocation3" cx="453.4" cy="157.2" r="16.9"/>
	<path id="svg-concept" class="colocation3" d="M459.8,157.2c0,3.5-2.8,6.3-6.3,6.3c-3.5,0-6.3-2.8-6.3-6.3c0-3.6,2.8-6.3,6.3-6.3
		C456.9,151,459.8,153.8,459.8,157.2z M470.5,157.2h-10.7 M447.1,157.2h-10.7"/>
</g>
<g>
	<circle id="svg-concept" class="colocation3" cx="453.4" cy="71.4" r="16.9"/>
	<path id="svg-concept" class="colocation3" d="M459.8,71.4c0,3.5-2.8,6.3-6.3,6.3c-3.5,0-6.3-2.8-6.3-6.3c0-3.6,2.8-6.3,6.3-6.3
		C456.9,65.1,459.8,67.9,459.8,71.4z M470.5,71.4h-10.7 M447.1,71.4h-10.7"/>
</g>
</svg>
